<svg xmlns="http://www.w3.org/2000/svg" width="1200" height="760" viewBox="0 0 1200 760" role="img" aria-labelledby="title desc">
  <title id="title">Review draft editor mock screenshot</title>
  <desc id="desc">A dark mock screenshot matching the real review draft page with package list, editor, and rendered markdown preview.</desc>
  <defs>
    <filter id="shadow" x="-20%" y="-20%" width="140%" height="150%">
      <feDropShadow dx="0" dy="14" stdDeviation="18" flood-color="#000000" flood-opacity="0.28"/>
    </filter>
    <style><![CDATA[
      .bg{fill:#080b12}.app{fill:#0b101a}.rail{fill:#0e1421}.top{fill:#111827}.panel{fill:#111827;stroke:#263246}.panel2{fill:#151e2f;stroke:#334155}.editor{fill:#0b1220;stroke:#334155}.card{fill:#151e2f;stroke:#334155}.ink{fill:#edf2fb}.muted{fill:#97a3b7}.subtle{fill:#6f7d92}.cyan{fill:#66d9ef}.blue{fill:#93c5fd}.ok{fill:#4ade80}.warn{fill:#f59e0b}.orange{fill:#f97316}.txt{font-family:"Avenir Next","Aptos",system-ui,sans-serif}.mono{font-family:"JetBrains Mono","SFMono-Regular",Menlo,monospace}.heavy{font-weight:800}.bold{font-weight:650}.tiny{font-size:10px}.small{font-size:12px}.body{font-size:13px}.line{stroke:#263246;stroke-width:1}.pill{fill:#1e293b;stroke:#475569}
    ]]></style>
  </defs>
  <rect width="1200" height="760" class="bg"/>
  <rect x="18" y="18" width="1164" height="724" rx="22" class="app" filter="url(#shadow)"/>
  <rect x="18" y="18" width="252" height="724" rx="22" class="rail"/>
  <rect x="248" y="18" width="22" height="724" class="rail"/>
  <line x1="270" y1="18" x2="270" y2="742" class="line"/>
  <rect x="270" y="18" width="912" height="66" class="top"/>
  <g class="txt">
    <rect x="40" y="40" width="34" height="34" rx="11" fill="#66d9ef"/>
    <text x="52" y="63" font-size="16" font-weight="850" fill="#06111f">A</text>
    <text x="86" y="55" class="ink body heavy">A2A Review</text>
    <text x="86" y="73" class="muted small">Agent workflow board</text>
    <text x="42" y="126" class="subtle tiny heavy">REVIEW OPS</text>
    <text x="58" y="167" class="muted body">Board</text>
    <text x="58" y="211" class="muted body">Pull requests</text>
    <rect x="38" y="228" width="190" height="36" rx="10" fill="#162337" stroke="#2f3d55"/>
    <rect x="38" y="228" width="4" height="36" rx="2" fill="#66d9ef"/>
    <text x="58" y="251" class="ink body bold">Review drafts</text>
    <text x="58" y="291" class="muted body">Review requests</text>
    <text x="302" y="57" class="muted body">A2A / <tspan class="ink heavy">Review Drafts</tspan></text>
  </g>

  <g class="txt">
    <text x="296" y="122" class="subtle tiny heavy">REVIEW DRAFTS</text>
    <text x="296" y="153" class="ink" font-size="25" font-weight="850">Agent review drafts</text>
    <rect x="890" y="116" width="116" height="28" rx="14" fill="#111827" stroke="#263246"/>
    <text x="913" y="134" class="muted small">Task packages</text>
    <rect x="1018" y="116" width="92" height="28" rx="14" fill="#111827" stroke="#263246"/>
    <text x="1041" y="134" class="muted small">Gitea body</text>
  </g>

  <rect x="294" y="178" width="266" height="494" rx="16" class="panel"/>
  <g class="txt">
    <rect x="294" y="178" width="266" height="58" rx="16" fill="#151e2f"/>
    <rect x="294" y="218" width="266" height="18" fill="#151e2f"/>
    <text x="314" y="203" class="subtle tiny heavy">LOCAL PACKAGES</text>
    <text x="314" y="222" class="ink body heavy">Review drafts</text>
    <rect x="484" y="190" width="54" height="32" rx="10" class="pill"/>
    <text x="496" y="211" class="ink small bold">Refresh</text>
    <rect x="314" y="258" width="224" height="70" rx="13" fill="#251c17" stroke="#f97316"/>
    <text x="330" y="285" class="ink small heavy">moras-brain PR#586</text>
    <rect x="448" y="268" width="70" height="22" rx="11" fill="#2b2114" stroke="#f59e0b"/>
    <text x="461" y="283" class="warn tiny heavy">local</text>
    <text x="330" y="307" class="muted small">markdown feedback follow-up</text>
    <rect x="314" y="344" width="224" height="70" rx="13" class="card"/>
    <text x="330" y="371" class="ink small heavy">moras-console PR#164</text>
    <text x="330" y="393" class="muted small">render nested review comment</text>
    <rect x="314" y="430" width="224" height="70" rx="13" class="card"/>
    <text x="330" y="457" class="ink small heavy">moras-api Issue#254</text>
    <text x="330" y="479" class="muted small">easy assessment approval</text>
  </g>

  <rect x="574" y="178" width="350" height="494" rx="16" class="panel"/>
  <rect x="574" y="178" width="350" height="58" rx="16" fill="#111827"/>
  <rect x="574" y="218" width="350" height="18" fill="#111827"/>
  <g class="txt">
    <text x="596" y="203" class="subtle tiny heavy">EDITABLE COMMENT</text>
    <text x="596" y="222" class="ink body heavy">moras-brain PR#586</text>
    <rect x="848" y="190" width="52" height="24" rx="12" fill="#2b2114" stroke="#f59e0b"/>
    <text x="860" y="206" class="warn tiny heavy">local</text>
    <rect x="596" y="254" width="92" height="52" rx="10" class="editor"/>
    <text x="608" y="276" class="subtle tiny heavy">TITLE</text>
    <text x="608" y="294" class="ink tiny">PR feedback</text>
    <rect x="700" y="254" width="92" height="52" rx="10" class="editor"/>
    <text x="712" y="276" class="subtle tiny heavy">TASK</text>
    <text x="712" y="294" class="ink tiny">review.md</text>
    <rect x="804" y="254" width="92" height="52" rx="10" class="editor"/>
    <text x="816" y="276" class="subtle tiny heavy">REASON</text>
    <text x="816" y="294" class="ink tiny">ready</text>
  </g>
  <rect x="574" y="318" width="350" height="282" class="editor"/>
  <g class="mono">
    <text x="598" y="354" class="blue small">## Automated PR Review</text>
    <text x="598" y="388" class="ink small">**Verdict:** Needs human review</text>
    <text x="598" y="426" class="warn small">### Findings</text>
    <text x="598" y="456" class="muted small">- [blocking] markdown rendering issue</text>
    <text x="598" y="486" class="muted small">- [medium] preserve fenced code</text>
    <text x="598" y="532" class="warn small">### Suggested PR Comment</text>
    <text x="598" y="562" class="muted small">Thanks. I found one rendering regression.</text>
  </g>
  <rect x="574" y="600" width="350" height="72" fill="#111827"/>
  <g class="txt">
    <rect x="596" y="620" width="62" height="32" rx="10" class="pill"/><text x="612" y="641" class="ink small">Reload</text>
    <rect x="668" y="620" width="52" height="32" rx="10" class="pill"/><text x="682" y="641" class="ink small">Save</text>
    <rect x="760" y="620" width="142" height="32" rx="10" fill="#f97316"/><text x="782" y="641" class="ink small heavy">Post approved comment</text>
  </g>

  <rect x="938" y="178" width="214" height="494" rx="16" class="panel"/>
  <rect x="938" y="178" width="214" height="58" rx="16" fill="#111827"/>
  <rect x="938" y="218" width="214" height="18" fill="#111827"/>
  <g class="txt">
    <text x="960" y="203" class="subtle tiny heavy">GITEA COMMENT</text>
    <text x="960" y="222" class="ink body heavy">Rendered preview</text>
    <text x="960" y="276" class="ink body heavy">Automated PR Review</text>
    <text x="960" y="306" class="muted small">Verdict: <tspan class="ink bold">Needs human review</tspan></text>
    <text x="960" y="348" class="warn small heavy">Findings</text>
    <circle cx="966" cy="379" r="3" fill="#97a3b7"/><text x="978" y="383" class="muted small">blocking markdown regression</text>
    <circle cx="966" cy="411" r="3" fill="#97a3b7"/><text x="978" y="415" class="muted small">preserve fenced code</text>
    <rect x="960" y="452" width="166" height="92" rx="12" fill="#020617" stroke="#334155"/>
    <text x="974" y="481" class="blue small mono">tea comment --repo</text>
    <text x="974" y="510" class="muted small mono">moras-brain 586</text>
    <text x="960" y="586" class="muted small">Thanks. I found one focused fix path.</text>
  </g>
</svg>
